<?xml version="1.0" encoding="UTF-8" standalone="no" ?>
<!DOCTYPE svg PUBLIC "-//W3C//DTD SVG 1.1//EN" "http://www.w3.org/Graphics/SVG/1.1/DTD/svg11.dtd">
<svg xmlns="http://www.w3.org/2000/svg" xmlns:xlink="http://www.w3.org/1999/xlink" version="1.1" width="1080" height="1080" viewBox="0 0 1080 1080" xml:space="preserve">
<desc>Created with Fabric.js 5.2.4</desc>
<defs>
</defs>
<g transform="matrix(1 0 0 1 540 540)" id="11a99885-1eab-4eca-a0db-8539e96d97aa"  >
<rect style="stroke: none; stroke-width: 1; stroke-dasharray: none; stroke-linecap: butt; stroke-dashoffset: 0; stroke-linejoin: miter; stroke-miterlimit: 4; fill: rgb(255,255,255); fill-rule: nonzero; opacity: 1; visibility: hidden;" vector-effect="non-scaling-stroke"  x="-540" y="-540" rx="0" ry="0" width="1080" height="1080" />
</g>
<g transform="matrix(1 0 0 1 540 540)" id="f677d87c-4513-44aa-8267-b088db98dc02"  >
</g>
<g transform="matrix(8.44 0 0 8.44 540 540)"  >
<path style="stroke: none; stroke-width: 0.104373; stroke-dasharray: none; stroke-linecap: butt; stroke-dashoffset: 0; stroke-linejoin: miter; stroke-miterlimit: 4; fill: rgb(0,0,0); fill-rule: nonzero; opacity: 1;"  transform=" translate(-64, -64)" d="M 75.916 54.2 L 122.542 0 L 111.492 0 L 71.008 47.06 L 38.672 0 L 1.376 0 L 50.274 71.164 L 1.376 128 L 12.426 128 L 55.18 78.303 L 89.328 128 L 126.624 128 L 75.913 54.2 Z M 60.782 71.79 L 55.827 64.70400000000001 L 16.406999999999996 8.318000000000005 L 33.379 8.318000000000005 L 65.19 53.824 L 70.14399999999999 60.91 L 111.49699999999999 120.06 L 94.52699999999999 120.06 L 60.782 71.793 Z" stroke-linecap="round" />
</g>
</svg>