<?xml version="1.0" encoding="UTF-8" standalone="no" ?>
<!DOCTYPE svg PUBLIC "-//W3C//DTD SVG 1.1//EN" "http://www.w3.org/Graphics/SVG/1.1/DTD/svg11.dtd">
<svg xmlns="http://www.w3.org/2000/svg" xmlns:xlink="http://www.w3.org/1999/xlink" version="1.1" width="1080" height="1080" viewBox="0 0 1080 1080" xml:space="preserve">
<desc>Created with Fabric.js 5.2.4</desc>
<defs>
</defs>
<g transform="matrix(1 0 0 1 540 540)" id="8bad8f91-f8b1-4c8e-bede-a82ce111f808"  >
<rect style="stroke: none; stroke-width: 1; stroke-dasharray: none; stroke-linecap: butt; stroke-dashoffset: 0; stroke-linejoin: miter; stroke-miterlimit: 4; fill: rgb(255,255,255); fill-rule: nonzero; opacity: 1; visibility: hidden;" vector-effect="non-scaling-stroke"  x="-540" y="-540" rx="0" ry="0" width="1080" height="1080" />
</g>
<g transform="matrix(1 0 0 1 540 540)" id="fd9314ff-7c91-4dc4-94d2-c52830c7758d"  >
</g>
<g transform="matrix(45 0 0 45 540 540)"  >
<path style="stroke: none; stroke-width: 1; stroke-dasharray: none; stroke-linecap: butt; stroke-dashoffset: 0; stroke-linejoin: miter; stroke-miterlimit: 4; fill: rgb(225,225,225); fill-rule: nonzero; opacity: 1;"  transform=" translate(-12, -12)" d="M 6.62 10.79 C 8.06 13.62 10.38 15.94 13.21 17.38 L 15.41 15.18 C 15.69 14.9 16.08 14.82 16.43 14.93 C 17.55 15.3 18.75 15.5 20 15.5 C 20.552284749830793 15.5 21 15.947715250169207 21 16.5 L 21 20 C 21 20.552284749830793 20.552284749830793 21 20 21 C 10.611159252876512 21 3 13.388840747123488 3 4 C 3 3.4477152501692068 3.4477152501692068 3 4 3 L 7.5 3 C 8.052284749830793 3 8.5 3.4477152501692063 8.5 4 C 8.5 5.25 8.7 6.45 9.07 7.57 C 9.18 7.92 9.1 8.31 8.82 8.59 L 6.62 10.79 Z" stroke-linecap="round" />
</g>
</svg>